# xmcd
#
# Track frame offsets:
#	150
#	12327
#	32962
#	48632
#	64126
#	80055
#	96064
#	108323
#	122575
#	143727
#	158643
#	178425
#	197671
#	217015
#	231594
#
# Disc length: 3186 seconds
#
# Revision: 1
# Processed by: cddbd v1.5.1PL0 Copyright (c) Steve Scherf et al.
# Submitted via: audiograbber 1.83.01
#
DISCID=dc0c700f
DTITLE=Steve Wariner - Two Teardrops
DYEAR=1999
DGENRE=Country
TTITLE0=Hands Of Time 
TTITLE1=Two Teardrops 
TTITLE2=You Be My Everything 
TTITLE3=I'm Already Taken 
TTITLE4=I've Been In That Movie 
TTITLE5=If You Don't Know By Now 
TTITLE6=Talk To Her Heart 
TTITLE7=So Much 
TTITLE8=I'll Always Have Denver 
TTITLE9=That's Love For You 
TTITLE10=Cry No More 
TTITLE11=Since You Walked Away 
TTITLE12=For The First Time 
TTITLE13=Tattoos Of Life 
TTITLE14=The Harry Shuffle
EXTD=
EXTT0=
EXTT1=
EXTT2=
EXTT3=
EXTT4=
EXTT5=
EXTT6=
EXTT7=
EXTT8=
EXTT9=
EXTT10=
EXTT11=
EXTT12=
EXTT13=
EXTT14=
PLAYORDER=
